# xmcd
#
# Track frame offsets: 
#        183
#        13125
#        26278
#        40948
#        54168
#        65160
#        77903
#        92208
#        102985
#        115883
#        128498
#        139035
#        152728
#        162750
#        176203
#        188893
#        202083
#        217003
#        230983
#        243308
#        260840
#        273435
#
# Disc length: 3794 seconds
#
# Revision: 4
# Processed by: cddbd v1.5.2PL0 Copyright (c) Steve Scherf et al.
# Submitted via: ExactAudioCopyFreeDBPlugin 1.0
#
DISCID=440ed016
DTITLE=Muddy Waters - The Complete Muddy Waters on Chess Records, 1947
DTITLE=1967 [Charly Red Box]
DYEAR=1992
DGENRE=Blues
TTITLE0=Forty Days and Forty Nights
TTITLE1=All Aboard
TTITLE2=Just to Be with You
TTITLE3=Don't Go No Further
TTITLE4=Diamonds at Your Feet
TTITLE5=I Live the Life I Love, I Love the Life I Live
TTITLE6=Rock Me
TTITLE7=Look What You've Done
TTITLE8=Got My Mojo Working
TTITLE9=Good News
TTITLE10=Evil
TTITLE11=Come Home Baby, I Wish You Would
TTITLE12=Let Me Hang Around
TTITLE13=I Won't Go On
TTITLE14=She's Got It
TTITLE15=Born Lover
TTITLE16=She's 19 Years Old
TTITLE17=Close to You
TTITLE18=Walkin' Thru the Park
TTITLE19=Blues Before Sunrise
TTITLE20=Mean Mistreater
TTITLE21=Crawlin' Kingsnake
EXTD=
EXTT0=
EXTT1=
EXTT2=
EXTT3=
EXTT4=
EXTT5=
EXTT6=
EXTT7=
EXTT8=
EXTT9=
EXTT10=
EXTT11=
EXTT12=
EXTT13=
EXTT14=
EXTT15=
EXTT16=
EXTT17=
EXTT18=
EXTT19=
EXTT20=
EXTT21=
PLAYORDER=
